<svg width="300" height="200" xmlns="http://www.w3.org/2000/svg">
  <!-- Black background -->
  <rect width="100%" height="100%" fill="black"/>
  
  <!-- Beehive logo in gold color -->
  <g transform="translate(50, 25) scale(0.8)">
    <path d="M77.5,28c-8.4,0.9-15.5,7-18.1,15.4c-1.7,5.5-1,11.3,1.9,16c1.1,1.8,3.7,4.3,5.4,5.3c0.7,0.4,1.6,0.9,2,1.1
      c0.9,0.5,3.3,1.2,4.9,1.5c0.8,0.2,1.6,0.3,1.7,0.4c0.4,0.2-0.1,0.5-1.9,1.1c-4.3,1.5-7.8,4.1-10.6,7.9c-1.7,2.3-3.1,5.1-3.8,7.6
      c-0.7,2.7-0.9,6.5-0.4,9.2c1.1,7.3,5.7,13.5,12.6,16.9c3.5,1.8,6.6,2.5,10.8,2.5c6.6,0,12.2-2.2,17-6.6c6.5-6,8.3-15.1,4.6-22.9
      c-1.1-2.5-3.6-5.5-5.8-7.2c-1.9-1.5-5.3-3.2-7.2-3.7c-1.5-0.4-1.5-0.4,1,0c5.8,0.9,11.1-0.5,15.4-4.2c5.3-4.5,7.6-11.7,5.9-18.6
      c-0.7-3-2.3-6.1-4.4-8.7c-2.5-3.1-6.5-5.6-10.4-6.6C95.1,33,80.3,27.7,77.5,28z" 
      fill="#FDB515"/>
    <path d="M170,80c0,0-10,5-30,10c-14.5,3.6-45,10-45,10s-15,2-25,3c-10.9,1.1-25,0-25,0l-10-4c0,0,0,0,0,0c0,0,10,1,20,0
      c13.3-1.3,30-5,30-5s25-5,40-10c20-6.7,30-10,30-10s20-8,20-8S174,77,170,80z" 
      fill="#FDB515"/>
    <path d="M168,98c0,0-8,2-28,7c-14.5,3.6-45,10-45,10s-16,4-25,5c-9.1,1-20,0-20,0l-15-5c0,0,0,0,0,0c0,0,10,1,20,0
      c13.3-1.3,25-5,25-5s30-5,45-10c20-6.7,28-7,28-7s15-3,15-3S172,95,168,98z" 
      fill="#FDB515"/>
  </g>
  
  <!-- BA text in white, slightly visible as watermark -->
  <text x="150" y="150" font-family="Arial" font-size="120" font-weight="bold" text-anchor="middle" fill="rgba(255,255,255,0.1)">BA</text>
</svg>