<svg width="300" height="300" viewBox="0 0 300 300" fill="none" xmlns="http://www.w3.org/2000/svg">
  <circle cx="10" cy="10" r="4" fill="#FDB515" fill-opacity="0.3"/>
  <circle cx="40" cy="10" r="4" fill="#FDB515" fill-opacity="0.3"/>
  <circle cx="70" cy="10" r="4" fill="#FDB515" fill-opacity="0.3"/>
  <circle cx="100" cy="10" r="4" fill="#FDB515" fill-opacity="0.3"/>
  <circle cx="130" cy="10" r="4" fill="#FDB515" fill-opacity="0.3"/>
  <circle cx="160" cy="10" r="4" fill="#FDB515" fill-opacity="0.3"/>
  <circle cx="190" cy="10" r="4" fill="#FDB515" fill-opacity="0.3"/>
  <circle cx="220" cy="10" r="4" fill="#FDB515" fill-opacity="0.3"/>
  <circle cx="250" cy="10" r="4" fill="#FDB515" fill-opacity="0.3"/>
  <circle cx="280" cy="10" r="4" fill="#FDB515" fill-opacity="0.3"/>
  
  <circle cx="10" cy="40" r="4" fill="#FDB515" fill-opacity="0.3"/>
  <circle cx="40" cy="40" r="4" fill="#FDB515" fill-opacity="0.3"/>
  <circle cx="70" cy="40" r="4" fill="#FDB515" fill-opacity="0.3"/>
  <circle cx="100" cy="40" r="4" fill="#FDB515" fill-opacity="0.3"/>
  <circle cx="130" cy="40" r="4" fill="#FDB515" fill-opacity="0.3"/>
  <circle cx="160" cy="40" r="4" fill="#FDB515" fill-opacity="0.3"/>
  <circle cx="190" cy="40" r="4" fill="#FDB515" fill-opacity="0.3"/>
  <circle cx="220" cy="40" r="4" fill="#FDB515" fill-opacity="0.3"/>
  <circle cx="250" cy="40" r="4" fill="#FDB515" fill-opacity="0.3"/>
  <circle cx="280" cy="40" r="4" fill="#FDB515" fill-opacity="0.3"/>
  
  <circle cx="10" cy="70" r="4" fill="#FDB515" fill-opacity="0.3"/>
  <circle cx="40" cy="70" r="4" fill="#FDB515" fill-opacity="0.3"/>
  <circle cx="70" cy="70" r="4" fill="#FDB515" fill-opacity="0.3"/>
  <circle cx="100" cy="70" r="4" fill="#FDB515" fill-opacity="0.3"/>
  <circle cx="130" cy="70" r="4" fill="#FDB515" fill-opacity="0.3"/>
  <circle cx="160" cy="70" r="4" fill="#FDB515" fill-opacity="0.3"/>
  <circle cx="190" cy="70" r="4" fill="#FDB515" fill-opacity="0.3"/>
  <circle cx="220" cy="70" r="4" fill="#FDB515" fill-opacity="0.3"/>
  <circle cx="250" cy="70" r="4" fill="#FDB515" fill-opacity="0.3"/>
  <circle cx="280" cy="70" r="4" fill="#FDB515" fill-opacity="0.3"/>
  
  <circle cx="10" cy="100" r="4" fill="#FDB515" fill-opacity="0.3"/>
  <circle cx="40" cy="100" r="4" fill="#FDB515" fill-opacity="0.3"/>
  <circle cx="70" cy="100" r="4" fill="#FDB515" fill-opacity="0.3"/>
  <circle cx="100" cy="100" r="4" fill="#FDB515" fill-opacity="0.3"/>
  <circle cx="130" cy="100" r="4" fill="#FDB515" fill-opacity="0.3"/>
  <circle cx="160" cy="100" r="4" fill="#FDB515" fill-opacity="0.3"/>
  <circle cx="190" cy="100" r="4" fill="#FDB515" fill-opacity="0.3"/>
  <circle cx="220" cy="100" r="4" fill="#FDB515" fill-opacity="0.3"/>
  <circle cx="250" cy="100" r="4" fill="#FDB515" fill-opacity="0.3"/>
  <circle cx="280" cy="100" r="4" fill="#FDB515" fill-opacity="0.3"/>
  
  <circle cx="10" cy="130" r="4" fill="#FDB515" fill-opacity="0.3"/>
  <circle cx="40" cy="130" r="4" fill="#FDB515" fill-opacity="0.3"/>
  <circle cx="70" cy="130" r="4" fill="#FDB515" fill-opacity="0.3"/>
  <circle cx="100" cy="130" r="4" fill="#FDB515" fill-opacity="0.3"/>
  <circle cx="130" cy="130" r="4" fill="#FDB515" fill-opacity="0.3"/>
  <circle cx="160" cy="130" r="4" fill="#FDB515" fill-opacity="0.3"/>
  <circle cx="190" cy="130" r="4" fill="#FDB515" fill-opacity="0.3"/>
  <circle cx="220" cy="130" r="4" fill="#FDB515" fill-opacity="0.3"/>
  <circle cx="250" cy="130" r="4" fill="#FDB515" fill-opacity="0.3"/>
  <circle cx="280" cy="130" r="4" fill="#FDB515" fill-opacity="0.3"/>
  
  <circle cx="10" cy="160" r="4" fill="#FDB515" fill-opacity="0.3"/>
  <circle cx="40" cy="160" r="4" fill="#FDB515" fill-opacity="0.3"/>
  <circle cx="70" cy="160" r="4" fill="#FDB515" fill-opacity="0.3"/>
  <circle cx="100" cy="160" r="4" fill="#FDB515" fill-opacity="0.3"/>
  <circle cx="130" cy="160" r="4" fill="#FDB515" fill-opacity="0.3"/>
  <circle cx="160" cy="160" r="4" fill="#FDB515" fill-opacity="0.3"/>
  <circle cx="190" cy="160" r="4" fill="#FDB515" fill-opacity="0.3"/>
  <circle cx="220" cy="160" r="4" fill="#FDB515" fill-opacity="0.3"/>
  <circle cx="250" cy="160" r="4" fill="#FDB515" fill-opacity="0.3"/>
  <circle cx="280" cy="160" r="4" fill="#FDB515" fill-opacity="0.3"/>
  
  <circle cx="10" cy="190" r="4" fill="#FDB515" fill-opacity="0.3"/>
  <circle cx="40" cy="190" r="4" fill="#FDB515" fill-opacity="0.3"/>
  <circle cx="70" cy="190" r="4" fill="#FDB515" fill-opacity="0.3"/>
  <circle cx="100" cy="190" r="4" fill="#FDB515" fill-opacity="0.3"/>
  <circle cx="130" cy="190" r="4" fill="#FDB515" fill-opacity="0.3"/>
  <circle cx="160" cy="190" r="4" fill="#FDB515" fill-opacity="0.3"/>
  <circle cx="190" cy="190" r="4" fill="#FDB515" fill-opacity="0.3"/>
  <circle cx="220" cy="190" r="4" fill="#FDB515" fill-opacity="0.3"/>
  <circle cx="250" cy="190" r="4" fill="#FDB515" fill-opacity="0.3"/>
  <circle cx="280" cy="190" r="4" fill="#FDB515" fill-opacity="0.3"/>
  
  <circle cx="10" cy="220" r="4" fill="#FDB515" fill-opacity="0.3"/>
  <circle cx="40" cy="220" r="4" fill="#FDB515" fill-opacity="0.3"/>
  <circle cx="70" cy="220" r="4" fill="#FDB515" fill-opacity="0.3"/>
  <circle cx="100" cy="220" r="4" fill="#FDB515" fill-opacity="0.3"/>
  <circle cx="130" cy="220" r="4" fill="#FDB515" fill-opacity="0.3"/>
  <circle cx="160" cy="220" r="4" fill="#FDB515" fill-opacity="0.3"/>
  <circle cx="190" cy="220" r="4" fill="#FDB515" fill-opacity="0.3"/>
  <circle cx="220" cy="220" r="4" fill="#FDB515" fill-opacity="0.3"/>
  <circle cx="250" cy="220" r="4" fill="#FDB515" fill-opacity="0.3"/>
  <circle cx="280" cy="220" r="4" fill="#FDB515" fill-opacity="0.3"/>
  
  <circle cx="10" cy="250" r="4" fill="#FDB515" fill-opacity="0.3"/>
  <circle cx="40" cy="250" r="4" fill="#FDB515" fill-opacity="0.3"/>
  <circle cx="70" cy="250" r="4" fill="#FDB515" fill-opacity="0.3"/>
  <circle cx="100" cy="250" r="4" fill="#FDB515" fill-opacity="0.3"/>
  <circle cx="130" cy="250" r="4" fill="#FDB515" fill-opacity="0.3"/>
  <circle cx="160" cy="250" r="4" fill="#FDB515" fill-opacity="0.3"/>
  <circle cx="190" cy="250" r="4" fill="#FDB515" fill-opacity="0.3"/>
  <circle cx="220" cy="250" r="4" fill="#FDB515" fill-opacity="0.3"/>
  <circle cx="250" cy="250" r="4" fill="#FDB515" fill-opacity="0.3"/>
  <circle cx="280" cy="250" r="4" fill="#FDB515" fill-opacity="0.3"/>
  
  <circle cx="10" cy="280" r="4" fill="#FDB515" fill-opacity="0.3"/>
  <circle cx="40" cy="280" r="4" fill="#FDB515" fill-opacity="0.3"/>
  <circle cx="70" cy="280" r="4" fill="#FDB515" fill-opacity="0.3"/>
  <circle cx="100" cy="280" r="4" fill="#FDB515" fill-opacity="0.3"/>
  <circle cx="130" cy="280" r="4" fill="#FDB515" fill-opacity="0.3"/>
  <circle cx="160" cy="280" r="4" fill="#FDB515" fill-opacity="0.3"/>
  <circle cx="190" cy="280" r="4" fill="#FDB515" fill-opacity="0.3"/>
  <circle cx="220" cy="280" r="4" fill="#FDB515" fill-opacity="0.3"/>
  <circle cx="250" cy="280" r="4" fill="#FDB515" fill-opacity="0.3"/>
  <circle cx="280" cy="280" r="4" fill="#FDB515" fill-opacity="0.3"/>
</svg>
