<svg width="1440" height="320" viewBox="0 0 1440 320" fill="none" xmlns="http://www.w3.org/2000/svg">
  <path d="M0,192L48,197.3C96,203,192,213,288,202.7C384,192,480,160,576,170.7C672,181,768,235,864,234.7C960,235,1056,181,1152,160C1248,139,1344,149,1392,154.7L1440,160L1440,320L1392,320C1344,320,1248,320,1152,320C1056,320,960,320,864,320C768,320,672,320,576,320C480,320,384,320,288,320C192,320,96,320,48,320L0,320Z" fill="#FDB515" fill-opacity="0.1"/>
  <path d="M0,224L48,213.3C96,203,192,181,288,181.3C384,181,480,203,576,224C672,245,768,267,864,261.3C960,256,1056,224,1152,197.3C1248,171,1344,149,1392,138.7L1440,128L1440,320L1392,320C1344,320,1248,320,1152,320C1056,320,960,320,864,320C768,320,672,320,576,320C480,320,384,320,288,320C192,320,96,320,48,320L0,320Z" fill="#FDB515" fill-opacity="0.2"/>
  <path d="M0,256L48,245.3C96,235,192,213,288,213.3C384,213,480,235,576,250.7C672,267,768,277,864,282.7C960,288,1056,288,1152,261.3C1248,235,1344,181,1392,154.7L1440,128L1440,320L1392,320C1344,320,1248,320,1152,320C1056,320,960,320,864,320C768,320,672,320,576,320C480,320,384,320,288,320C192,320,96,320,48,320L0,320Z" fill="#FDB515" fill-opacity="0.3"/>
</svg>
